<mxfile host="app.diagrams.net" agent="Mozilla/5.0 (Windows NT 10.0; Win64; x64) AppleWebKit/537.36 (KHTML, like Gecko) Chrome/127.0.0.0 Safari/537.36" version="24.7.7">
  <diagram name="Page-1" id="52O4ASvyBMXEnnTQfkR-">
    <mxGraphModel dx="375" dy="627" grid="1" gridSize="10" guides="1" tooltips="1" connect="1" arrows="1" fold="1" page="1" pageScale="1" pageWidth="850" pageHeight="1100" math="0" shadow="0">
      <root>
        <mxCell id="0" />
        <mxCell id="1" parent="0" />
        <mxCell id="NQerr5TGr8dw8ACj8go9-1" value="&lt;ul&gt;&lt;li&gt;not declared&lt;/li&gt;&lt;/ul&gt;" style="text;html=1;align=left;verticalAlign=middle;whiteSpace=wrap;rounded=0;fontSize=14;" parent="1" vertex="1">
          <mxGeometry x="110" y="170" width="130" height="30" as="geometry" />
        </mxCell>
        <mxCell id="NQerr5TGr8dw8ACj8go9-2" value="&lt;ul&gt;&lt;li&gt;implicitly declared&lt;/li&gt;&lt;/ul&gt;" style="text;html=1;align=left;verticalAlign=middle;whiteSpace=wrap;rounded=0;fontSize=14;" parent="1" vertex="1">
          <mxGeometry x="110" y="190" width="160" height="30" as="geometry" />
        </mxCell>
        <mxCell id="NQerr5TGr8dw8ACj8go9-3" value="&lt;ul&gt;&lt;li&gt;user declared&lt;/li&gt;&lt;/ul&gt;" style="text;html=1;align=left;verticalAlign=middle;whiteSpace=wrap;rounded=0;fontSize=14;" parent="1" vertex="1">
          <mxGeometry x="111.25" y="210" width="138.75" height="30" as="geometry" />
        </mxCell>
        <mxCell id="NQerr5TGr8dw8ACj8go9-4" value="&lt;ul&gt;&lt;li&gt;The special members can be:&lt;/li&gt;&lt;/ul&gt;" style="text;html=1;align=center;verticalAlign=middle;whiteSpace=wrap;rounded=0;fontSize=14;" parent="1" vertex="1">
          <mxGeometry x="100" y="140" width="230" height="30" as="geometry" />
        </mxCell>
        <mxCell id="NQerr5TGr8dw8ACj8go9-10" value="deleted" style="text;html=1;align=left;verticalAlign=middle;whiteSpace=wrap;rounded=0;fontSize=14;" parent="1" vertex="1">
          <mxGeometry x="330" y="150" width="60" height="30" as="geometry" />
        </mxCell>
        <mxCell id="NQerr5TGr8dw8ACj8go9-12" value="user-defined" style="text;html=1;align=left;verticalAlign=middle;whiteSpace=wrap;rounded=0;fontSize=14;" parent="1" vertex="1">
          <mxGeometry x="330" y="220" width="110" height="30" as="geometry" />
        </mxCell>
        <mxCell id="NQerr5TGr8dw8ACj8go9-13" value="" style="endArrow=classic;html=1;rounded=0;exitX=0.988;exitY=0.427;exitDx=0;exitDy=0;exitPerimeter=0;" parent="1" source="NQerr5TGr8dw8ACj8go9-2" edge="1">
          <mxGeometry width="50" height="50" relative="1" as="geometry">
            <mxPoint x="280" y="220" as="sourcePoint" />
            <mxPoint x="330" y="170" as="targetPoint" />
          </mxGeometry>
        </mxCell>
        <mxCell id="NQerr5TGr8dw8ACj8go9-14" value="" style="endArrow=classic;html=1;rounded=0;" parent="1" source="NQerr5TGr8dw8ACj8go9-2" edge="1">
          <mxGeometry width="50" height="50" relative="1" as="geometry">
            <mxPoint x="278" y="213" as="sourcePoint" />
            <mxPoint x="330" y="205" as="targetPoint" />
          </mxGeometry>
        </mxCell>
        <mxCell id="NQerr5TGr8dw8ACj8go9-15" value="" style="endArrow=classic;html=1;rounded=0;exitX=0.986;exitY=0.413;exitDx=0;exitDy=0;exitPerimeter=0;" parent="1" source="NQerr5TGr8dw8ACj8go9-3" edge="1">
          <mxGeometry width="50" height="50" relative="1" as="geometry">
            <mxPoint x="280" y="215" as="sourcePoint" />
            <mxPoint x="330" y="170" as="targetPoint" />
          </mxGeometry>
        </mxCell>
        <mxCell id="NQerr5TGr8dw8ACj8go9-16" value="" style="endArrow=classic;html=1;rounded=0;entryX=0;entryY=0.5;entryDx=0;entryDy=0;exitX=1;exitY=0.5;exitDx=0;exitDy=0;" parent="1" source="NQerr5TGr8dw8ACj8go9-3" edge="1">
          <mxGeometry width="50" height="50" relative="1" as="geometry">
            <mxPoint x="250" y="230" as="sourcePoint" />
            <mxPoint x="330" y="205" as="targetPoint" />
          </mxGeometry>
        </mxCell>
        <mxCell id="NQerr5TGr8dw8ACj8go9-17" value="" style="endArrow=classic;html=1;rounded=0;entryX=0;entryY=0.5;entryDx=0;entryDy=0;exitX=0.991;exitY=0.6;exitDx=0;exitDy=0;exitPerimeter=0;" parent="1" source="NQerr5TGr8dw8ACj8go9-3" target="NQerr5TGr8dw8ACj8go9-12" edge="1">
          <mxGeometry width="50" height="50" relative="1" as="geometry">
            <mxPoint x="260" y="240" as="sourcePoint" />
            <mxPoint x="340" y="215" as="targetPoint" />
          </mxGeometry>
        </mxCell>
        <mxCell id="nPCQjFbgXhlftpqTTlWN-1" value="defaulted" style="text;html=1;align=left;verticalAlign=middle;whiteSpace=wrap;rounded=0;fontSize=14;" vertex="1" parent="1">
          <mxGeometry x="330" y="190" width="60" height="30" as="geometry" />
        </mxCell>
      </root>
    </mxGraphModel>
  </diagram>
</mxfile>
